<svg width="50" height="50" viewBox="0 0 50 50" fill="none" xmlns="http://www.w3.org/2000/svg">
<g clip-path="url(#clip0_393_118)">
<path fill-rule="evenodd" clip-rule="evenodd" d="M27.6785 3.03941C27.6785 1.56008 26.4793 0.36084 25 0.36084C23.5206 0.36084 22.3214 1.56008 22.3214 3.03941V46.9606C22.3214 48.4399 23.5206 49.6391 25 49.6391C26.4793 49.6391 27.6785 48.4399 27.6785 46.9606V3.03941ZM14.2857 8.80722C15.765 8.80722 16.9643 10.0065 16.9643 11.4858V38.5141C16.9643 39.9938 15.765 41.1927 14.2857 41.1927C12.8064 41.1927 11.6071 39.9938 11.6071 38.5141V11.4858C11.6071 10.0065 12.8064 8.80722 14.2857 8.80722ZM3.57139 17.2536C5.05071 17.2536 6.24997 18.4529 6.24997 19.9322V30.0679C6.24997 31.5472 5.05071 32.7465 3.57139 32.7465C2.09206 32.7465 0.892822 31.5472 0.892822 30.0679V19.9322C0.892822 18.4529 2.09206 17.2536 3.57139 17.2536ZM35.7143 8.80722C37.1935 8.80722 38.3928 10.0065 38.3928 11.4858V38.5141C38.3928 39.9938 37.1935 41.1927 35.7143 41.1927C34.2349 41.1927 33.0357 39.9938 33.0357 38.5141V11.4858C33.0357 10.0065 34.2349 8.80722 35.7143 8.80722ZM49.1071 19.9322C49.1071 18.4529 47.9078 17.2536 46.4285 17.2536C44.9493 17.2536 43.75 18.4529 43.75 19.9322V30.0679C43.75 31.5472 44.9493 32.7465 46.4285 32.7465C47.9078 32.7465 49.1071 31.5472 49.1071 30.0679V19.9322Z" fill="#B1FD00"/>
</g>
<defs>
<clipPath id="clip0_393_118">
<rect width="50" height="50" fill="white"/>
</clipPath>
</defs>
</svg>
