<svg width="84" height="58" viewBox="0 0 84 58" fill="none" xmlns="http://www.w3.org/2000/svg">
<path d="M67.8333 0.166626C65.0537 2.82746 61.7108 4.91996 58.0063 6.25296C54.1417 6.93496 43.4467 1.97496 38.1767 7.03829C37.2983 7.91663 36.2133 8.79496 35.0767 9.67329C32.5967 8.58829 28.7733 6.93496 25.9833 5.33329C23.1933 3.73163 16.1667 0.166626 16.1667 0.166626L0.666664 18.25C0.666664 18.25 4.49 23.4166 6.86666 26.8266C8.41666 29.1 10.3283 32.5616 11.5683 34.8866L9.81166 36.9533C9.512 37.5475 9.33116 38.245 9.33116 38.9838C9.33116 40.198 9.8065 41.3036 10.5867 42.12C11.2997 42.6521 12.1935 42.9725 13.17 42.9725C14.1465 42.9725 15.0403 42.6521 15.7637 42.1096C15.278 42.6728 14.9938 43.3961 14.9938 44.1866C14.9938 45.1838 15.4485 46.0725 16.1615 46.6615C16.9055 47.1006 17.7993 47.359 18.75 47.359C19.7007 47.359 20.5945 47.1006 21.3592 46.6511C20.7805 47.3693 20.4447 48.2683 20.4447 49.25C20.4447 50.2316 20.7805 51.1306 21.3437 51.8436C21.8552 52.0245 22.4493 52.133 23.0693 52.133C24.1388 52.133 25.1308 51.8075 25.9523 51.2546C25.7302 51.7455 25.6165 52.3035 25.6165 52.8925C25.6165 54.1015 26.1125 55.1916 26.9185 55.9666C27.5902 56.2715 28.3807 56.4471 29.2073 56.4471C30.375 56.4471 31.4652 56.0958 32.3642 55.4913L35.0302 53.0785C37.4688 55.5068 40.8323 57.0103 44.5472 57.0103C44.6505 57.0103 44.759 57.0103 44.8623 57.0051C47.4147 56.7881 49.5537 55.1658 50.5147 52.9183C51.269 53.2076 52.1267 53.404 53.036 53.404C54.2553 53.404 55.3868 53.0526 56.3427 52.4481C59.3652 50.4486 58.6418 48.8986 58.6418 48.8986C59.2877 49.1828 60.0368 49.3481 60.8273 49.3481C62.4858 49.3481 63.979 48.6145 64.9917 47.4571C65.901 46.522 66.4538 45.251 66.4538 43.856C66.4538 42.8743 66.18 41.9598 65.7047 41.1796C65.746 41.2055 65.7822 41.2055 65.8132 41.2055C67.9883 41.2055 69.8793 40.0068 70.8662 38.2398C71.2175 37.3563 71.4087 36.3643 71.4087 35.331C71.4087 33.564 70.8403 31.9261 69.8793 30.5931L69.8948 30.619C74.1315 29.7923 73.9765 27.674 76.0432 24.574C78.0272 22.0216 80.4452 19.9136 83.2093 18.3326L67.8333 0.166626ZM67.575 36.6433C65.3017 38.9166 63.545 37.935 59.67 34.99C55.795 32.045 48.0967 26.5166 48.0967 26.5166C48.4118 28.0925 49.1403 29.4616 50.1685 30.5518C51.8167 32.4066 56.725 36.6433 59.05 38.8133C60.4967 40.1566 64.2167 42.8433 62.0467 44.91C59.8767 46.9766 58.1717 44.91 54.6067 42.0166C51.0417 39.1233 43.085 31.9933 43.085 31.9933C43.0798 32.0863 43.0747 32.1896 43.0747 32.2981C43.0747 33.6311 43.612 34.835 44.48 35.7133C45.3583 36.7466 50.2667 41.5 52.3333 43.67C54.4 45.84 56.2083 47.1316 54.4517 48.8366C52.695 50.5416 49.13 47.855 47.1667 45.84C44.1183 42.895 38.0733 37.4183 38.0733 37.4183C38.0682 37.501 38.0682 37.594 38.0682 37.6921C38.0682 39.1595 38.5745 40.5028 39.427 41.5671C40.915 43.5201 43.8083 46.0518 45.565 48.0151C47.3217 49.9785 48.355 51.6318 45.565 53.1818C42.775 54.7318 38.6417 50.9085 36.8333 49.0485V49.0381C36.8333 48.506 36.637 48.0203 36.3167 47.6483C35.4952 46.8888 34.3843 46.4186 33.1702 46.4186C32.6328 46.4186 32.1162 46.5116 31.6357 46.677C32.297 46.088 32.6897 45.2613 32.6897 44.3416C32.6897 43.422 32.297 42.5953 31.6667 42.0166C31.0157 41.5258 30.1993 41.2313 29.3158 41.2313C28.4323 41.2313 27.6108 41.5258 26.9547 42.0218C27.5592 41.438 27.9312 40.6371 27.9312 39.7433C27.9312 38.6428 27.368 37.6766 26.5155 37.1135C25.725 36.6123 24.7795 36.323 23.7668 36.323C22.5062 36.323 21.3488 36.7776 20.4498 37.5268C20.9407 36.9378 21.23 36.1835 21.23 35.3568C21.23 34.3493 20.7908 33.4451 20.0985 32.82C19.1788 31.9675 17.944 31.4456 16.5903 31.4456C15.6345 31.4456 14.7407 31.704 13.9708 32.1586L10.535 26.3565C8.15833 22.5848 5.36833 18.6581 5.36833 18.6581L17.1483 4.34646C17.1483 4.34646 21.3333 6.92979 24.795 8.89313C26.5 9.87479 29.445 11.1665 31.6667 12.1998C28.1533 14.8348 25.2083 17.3665 26.0867 19.1231C27.6212 20.2288 29.538 20.8953 31.6098 20.8953C33.5525 20.8953 35.3608 20.3115 36.8695 19.3091C38.7967 18.0123 41.2095 17.227 43.8083 17.227C45.6012 17.227 47.3062 17.599 48.851 18.2758C51.7133 20.2081 56.9833 24.9615 61.7883 27.9581C67.8333 32.3498 69.0217 35.1915 67.575 36.6381V36.6433Z" fill="#403F3F"/>
</svg>
